<svg width="16" height="21" viewBox="0 0 16 21" fill="none" xmlns="http://www.w3.org/2000/svg">
<g clip-path="url(#clip0_2166_3793)">
<path d="M15.3333 1.96875C15.7 1.96875 16 1.67344 16 1.3125V0.65625C16 0.295312 15.7 0 15.3333 0H0.666667C0.3 0 0 0.295312 0 0.65625V1.3125C0 1.67344 0.3 1.96875 0.666667 1.96875H1.33333V8.3959C0.491667 8.81016 0 9.30645 0 9.84375C0 12.6 1.44167 15.0199 3.61667 16.4268L2.725 19.3061C2.4625 20.1469 3.10417 21 4 21H12C12.8958 21 13.5375 20.1469 13.275 19.3061L12.3833 16.4268C14.5583 15.0199 16 12.6 16 9.84375C16 9.30645 15.5083 8.81016 14.6667 8.3959V1.96875H15.3333ZM3.33333 2.95312C3.33333 2.77266 3.48333 2.625 3.66667 2.625H5.66667C5.85 2.625 6 2.77266 6 2.95312V3.60938C6 3.78984 5.85 3.9375 5.66667 3.9375H3.66667C3.48333 3.9375 3.33333 3.78984 3.33333 3.60938V2.95312ZM8 11.1562C4.7875 11.1562 2.18333 10.5697 2.18333 9.84375C2.18333 9.11777 4.7875 8.53125 8 8.53125C11.2125 8.53125 13.8167 9.11777 13.8167 9.84375C13.8167 10.5697 11.2125 11.1562 8 11.1562Z" fill="white"/>
</g>
<defs>
<clipPath id="clip0_2166_3793">
<rect width="16" height="21" fill="white"/>
</clipPath>
</defs>
</svg>
