<svg width="24" height="24" viewBox="0 0 24 24" fill="none" xmlns="http://www.w3.org/2000/svg">
<path fill-rule="evenodd" clip-rule="evenodd" d="M18.4 4.87988C18.591 4.87988 18.7741 4.95574 18.9091 5.09077C19.0441 5.22579 19.12 5.40893 19.12 5.59988V11.9999C19.12 12.1908 19.0441 12.374 18.9091 12.509C18.7741 12.644 18.591 12.7199 18.4 12.7199C18.209 12.7199 18.0259 12.644 17.8909 12.509C17.7559 12.374 17.68 12.1908 17.68 11.9999V7.33748L7.3376 17.6799H12C12.191 17.6799 12.3741 17.7557 12.5091 17.8908C12.6441 18.0258 12.72 18.2089 12.72 18.3999C12.72 18.5908 12.6441 18.774 12.5091 18.909C12.3741 19.044 12.191 19.1199 12 19.1199H5.6C5.40905 19.1199 5.22591 19.044 5.09089 18.909C4.95586 18.774 4.88 18.5908 4.88 18.3999V11.9999C4.88 11.9053 4.89863 11.8117 4.93481 11.7244C4.971 11.637 5.02403 11.5576 5.09089 11.4908C5.15775 11.4239 5.23712 11.3709 5.32447 11.3347C5.41183 11.2985 5.50545 11.2799 5.6 11.2799C5.69456 11.2799 5.78818 11.2985 5.87554 11.3347C5.96289 11.3709 6.04226 11.4239 6.10912 11.4908C6.17598 11.5576 6.22901 11.637 6.2652 11.7244C6.30138 11.8117 6.32001 11.9053 6.32001 11.9999V16.6623L16.6624 6.31988H12C11.809 6.31988 11.6259 6.24403 11.4909 6.109C11.3559 5.97397 11.28 5.79084 11.28 5.59988C11.28 5.40893 11.3559 5.22579 11.4909 5.09077C11.6259 4.95574 11.809 4.87988 12 4.87988H18.4Z" fill="white"/>
</svg>
